<?xml version="1.0" encoding="UTF-8"?>
<svg xmlns="http://www.w3.org/2000/svg" viewBox="0 0 359.75 334.25">
  <defs>
    <style>
      .cls-1, .cls-2, .cls-3 {
        fill: #fff;
      }

      .cls-2, .cls-4 {
        mix-blend-mode: multiply;
      }

      .cls-5 {
        opacity: .5;
      }

      .cls-6 {
        stroke-width: 2.96px;
      }

      .cls-6, .cls-3, .cls-7, .cls-8 {
        stroke-miterlimit: 10;
      }

      .cls-6, .cls-7 {
        stroke: #231f20;
      }

      .cls-6, .cls-8, .cls-9 {
        fill: #231f20;
      }

      .cls-10 {
        isolation: isolate;
      }

      .cls-3 {
        stroke: #37322c;
        stroke-width: 2.64px;
      }

      .cls-11 {
        fill: #37322c;
      }

      .cls-7 {
        stroke-width: 13.04px;
      }

      .cls-7, .cls-12 {
        fill: none;
      }

      .cls-8 {
        stroke: #f89521;
        stroke-width: 6.52px;
      }

      .cls-13 {
        fill: #fdd700;
      }

      .cls-14 {
        fill: #ed1c24;
      }

      .cls-15 {
        fill: #d1d3d4;
      }

      .cls-16 {
        fill: #e6e7e8;
      }

      .cls-17 {
        fill: #003753;
      }
    </style>
  </defs>
  <g class="cls-10">
    <g id="Layer_2" data-name="Layer 2">
      <g id="Layer_1-2" data-name="Layer 1">
        <g>
          <path class="cls-9" d="m72.89,257.5l-3.1,2.32-5.74,4.27-19.5,14.54c-6.62,4.96-9.03,12.68-5.38,17.25.82,5.8,5.12,9.88,11.64,10.63,1.34.13,2.74.16,4.27,0,5.41-.52,11.09-3.42,15.81-7.47l16.69-14.28,2.93-2.48-17.64-24.78Z"/>
          <path class="cls-9" d="m274.31,286.91c-.07.1-.13.16-.2.23l2.12,2.32.46.49,15.98,17.44c5.58,6.1,13.5,7.73,17.67,3.62,5.71-1.37,9.33-6.06,9.42-12.65,0-1.34-.1-2.74-.42-4.24-1.08-5.35-4.53-10.7-9-15l-14.18-13.53-1.73-1.63-1.11-1.08-19.01,24.03Z"/>
          <path class="cls-9" d="m193.24,180.07l-19.01,17.31-73.33-80.6-.62-.65-2.61-2.84-11.28-12.42c-7.21-7.92-17.35-12.88-28.07-12.72-12.49.16-27.45-6.39-39.68-18.62C-.51,50.39-5.76,24.6,6.89,11.91,19.58-.74,45.37,4.51,64.51,23.65c12.23,12.23,18.78,27.19,18.62,39.68-.16,10.73,4.79,20.87,12.72,28.07l12.88,11.74,2.87,2.61.72.65,80.93,73.66Z"/>
          <path class="cls-9" d="m167.24,175.07l18.23,16.6,71.47-78.58.95-1.01,2.64-2.87,18.85-20.74c3.1-3.39,7.4-5.22,11.8-5.22,2.41,0,4.83.55,7.08,1.66,4.86,2.38,12.46-.46,17.51-6.49l43.99-52.99-2.15-2.15-41.28,44.25c-1.27,1.37-3.03,2.05-4.76,2.05s-3.33-.62-4.6-1.89c-2.45-2.48-2.54-6.42-.2-9l41.25-45-.98-.98-.98-.98-44.54,41.61c-2.54,2.41-6.55,2.35-9.03-.13l-.42-.42c-2.61-2.61-2.51-6.85.16-9.36L336.47,2.15l-2.15-2.15-52.99,43.99c-4.6,3.85-7.34,9.16-7.34,13.6,0,1.43.26,2.74.85,3.91,3.16,6.39,1.7,14.09-3.55,18.88l-21.03,19.14-2.9,2.64-1.04.95-79.07,71.96Z"/>
          <path class="cls-7" d="m279.53,106.2c-3.23-3.39-6.65-6.62-10.27-9.68-22.82-19.3-52.37-30.94-84.61-30.94s-60.32,11.09-82.92,29.57c-3.88,3.16-7.56,6.52-11.02,10.11l-.03.03c-22.96,23.61-37.11,55.82-37.11,91.36,0,22.89,5.87,44.44,16.24,63.16.03.13.1.23.16.33,1.08,1.96,2.18,3.85,3.36,5.74.39.62.78,1.24,1.21,1.86,3.85,6.03,8.22,11.71,13.08,17.02,1.83,2.02,3.75,4.01,5.74,5.93,23.57,22.92,55.79,37.04,91.3,37.04,33.39,0,63.91-12.49,87.06-33.1.55-.49,1.11-.98,1.63-1.5,1.14-1.04,2.25-2.09,3.36-3.2,5.51-5.38,10.53-11.28,15-17.61.49-.65.95-1.3,1.37-1.99.23-.33.46-.68.68-1.01.03-.07.07-.1.1-.16.82-1.17,1.57-2.38,2.31-3.59,12.46-20.02,19.6-43.66,19.6-68.93,0-35.05-13.76-66.91-36.23-90.45Zm-98.7,214.81c-52.04-1.66-95.73-34.4-113.64-79.72l75.06-29.18,24.98-22.73,19.01-17.31,18.23,16.6,24.98,22.76h.03l73.99,25.99c-17.58,50.18-66.32,85.4-122.63,83.6Z"/>
          <path class="cls-8" d="m276.89,109.07c-3.29-3.52-6.81-6.81-10.53-9.91-22.11-18.55-50.57-29.74-81.71-29.74s-58.2,10.63-80.05,28.34c-3.98,3.23-7.76,6.68-11.31,10.37-22.21,22.89-35.87,54.13-35.87,88.53,0,22.04,5.61,42.75,15.49,60.84.07.16.16.33.26.49,4.83,8.74,10.63,16.86,17.31,24.23,0,0,.03.03.07.07,23.25,25.56,56.8,41.61,94.1,41.61,34.99,0,66.68-14.12,89.67-36.98l.03-.03c7.14-7.11,13.47-15.1,18.78-23.74,0-.03.03-.03.03-.07,4.83-7.83,8.8-16.24,11.84-25.11,4.47-12.94,6.88-26.84,6.88-41.31,0-33.91-13.3-64.79-34.99-87.58Zm-96.06,211.95c-52.04-1.66-95.73-34.4-113.64-79.72l75.06-29.18,24.98-22.73,19.01-17.31,18.23,16.6,24.98,22.76h.03l73.99,25.99c-17.58,50.18-66.32,85.4-122.63,83.6Z"/>
          <path class="cls-14" d="m310.41,199.91c-.39,13.14-2.8,25.73-6.95,37.5l-73.99-25.99h-.03l-24.98-22.76-18.23-16.6-19.01,17.31-24.98,22.73-75.06,29.18c-6-15.26-9.1-31.95-8.58-49.37.98-32.41,14.25-61.56,35.28-83.15,3.59-3.68,7.4-7.14,11.41-10.37,22.6-18.13,51.58-28.6,82.92-27.59,29.41.95,56.15,11.8,77.08,29.28,3.75,3.13,7.3,6.46,10.63,9.98,22.24,23.38,35.51,55.17,34.47,89.83Z"/>
          <polyline class="cls-12" points="64.06 264.09 69.96 260.14 73.16 257.99"/>
          <line class="cls-12" x1="293.84" y1="269.17" x2="291.1" y2="266.37"/>
          <path class="cls-9" d="m303.47,237.41c-17.58,50.18-66.32,85.4-122.63,83.6-52.04-1.66-95.73-34.4-113.64-79.72l75.06-29.18,24.98-22.73,19.01-17.31,18.23,16.6,24.98,22.76h.03l73.99,25.99Z"/>
          <line class="cls-12" x1="305" y1="237.97" x2="303.46" y2="237.41"/>
          <circle class="cls-6" cx="184.58" cy="192.38" r="96.19"/>
          <g>
            <path class="cls-1" d="m102.92,282.69c-.72-.63-1.44-1.26-2.16-1.91.84-2.53,1.72-5.02,2.66-7.49-.06-.05-.11-.11-.17-.16-1.68,1.76-3.36,3.52-5.05,5.28-.67-.65-1.34-1.3-2.01-1.96,3.67-3.67,7.33-7.33,11-11,.8.8,1.62,1.59,2.44,2.37,2.01,1.88,2.18,3.76.44,5.77-.79.91-1.55,1.45-2.27,1.63-.73.17-1.56.05-2.49-.39-.86,2.59-1.66,5.21-2.4,7.87Zm1.33-10.59c.74.69,1.41,1.04,1.98,1.07.58.03,1.19-.32,1.85-1.04.63-.69.93-1.32.92-1.88-.02-.56-.37-1.16-1.05-1.81-.03-.03-.07-.07-.1-.1-1.2,1.25-2.4,2.5-3.59,3.76Z"/>
            <path class="cls-1" d="m112.33,290.09c-1.98-1.41-3.93-2.89-5.85-4.42,3.24-4.04,6.49-8.09,9.73-12.14,1.65,1.33,3.33,2.6,5.03,3.81-.34.48-.68.96-1.03,1.44-1.08-.77-2.15-1.57-3.21-2.38-1,1.3-2,2.61-3,3.91,1.03.79,2.06,1.56,3.1,2.31-.34.48-.69.96-1.03,1.44-1.06-.76-2.11-1.54-3.15-2.34-1.09,1.42-2.17,2.84-3.26,4.25,1.21.93,2.43,1.83,3.66,2.71-.33.47-.66.94-1,1.4Z"/>
            <path class="cls-1" d="m128.65,284.51c-.49-.71-.99-1.23-1.52-1.55-.53-.32-1.08-.44-1.67-.34-.58.09-1.03.37-1.32.84-.21.33-.32.75-.33,1.27,0,.52.13,1.45.44,2.78.31,1.34.53,2.44.62,3.33.09.88-.09,1.73-.56,2.53-.58,1-1.42,1.6-2.55,1.77-1.13.17-2.32-.12-3.54-.89-.67-.42-1.4-1.1-2.16-2.05.34-.52.69-1.04,1.03-1.56.02.02.04.05.06.08.08.16.28.45.59.88.32.42.68.76,1.08,1.02.66.41,1.31.58,1.94.49.64-.09,1.12-.41,1.44-.95.23-.38.33-.79.31-1.24-.02-.45-.14-1.12-.34-2-.18-.79-.35-1.58-.51-2.37-.19-.92-.26-1.69-.21-2.33.05-.63.29-1.27.71-1.9.63-.94,1.45-1.5,2.47-1.68,1.01-.18,2.01.03,3.01.65.7.43,1.32,1.01,1.86,1.75-.28.49-.57.98-.85,1.47Z"/>
            <path class="cls-1" d="m139.01,289.6c-.81-.37-1.63-.75-2.43-1.14-1.99,4.14-3.99,8.28-5.98,12.42-.8-.39-1.6-.78-2.39-1.18,2.08-4.1,4.16-8.19,6.24-12.29-.8-.4-1.59-.82-2.38-1.24.28-.52.56-1.04.84-1.56,2.24,1.21,4.52,2.34,6.83,3.38-.24.54-.49,1.08-.73,1.61Z"/>
            <path class="cls-1" d="m145.67,306.98c-.8-.27-1.6-.54-2.4-.82.12-1.05.24-2.09.37-3.13-1.27-.45-2.52-.93-3.78-1.43-.6.87-1.2,1.73-1.81,2.59-.78-.31-1.55-.64-2.33-.97,3.34-4.21,6.52-8.52,9.55-12.9.59.23,1.18.45,1.77.67-.63,5.29-1.09,10.63-1.38,15.99Zm-1.82-5.55c.32-2.5.68-4.99,1.06-7.48-.02,0-.04-.01-.05-.02-1.33,2.13-2.69,4.24-4.08,6.34,1.02.4,2.04.79,3.07,1.16Z"/>
            <path class="cls-1" d="m158.83,306.78c-.55,2.53-2.25,3.51-5.09,2.79-3.11-.81-4.27-2.53-3.52-4.99,1.13-3.79,2.27-7.59,3.4-11.38.73.22,1.46.43,2.19.63-.98,3.53-1.96,7.07-2.93,10.6-.32,1.14-.41,1.96-.29,2.46.12.5.59.86,1.41,1.07.82.21,1.39.11,1.71-.31.32-.41.62-1.21.9-2.39.86-3.52,1.71-7.05,2.57-10.57.74.18,1.47.35,2.21.51-.85,3.86-1.71,7.72-2.56,11.57Z"/>
            <path class="cls-1" d="m171.73,312.61c-.9-.1-1.79-.2-2.69-.32-.69-2.54-1.32-5.09-1.89-7.64-.07-.01-.14-.02-.21-.03-.38,2.4-.75,4.81-1.13,7.21-.86-.13-1.72-.28-2.58-.43.91-5.1,1.81-10.21,2.72-15.31,1.04.18,2.08.35,3.13.51,2.54.37,3.68,1.81,3.39,4.45-.13,1.2-.43,2.08-.91,2.64-.47.56-1.19.94-2.14,1.12.7,2.61,1.47,5.21,2.3,7.8Zm-4.57-9.4c.93.13,1.64.03,2.1-.28.46-.31.76-.95.89-1.92.12-.93.03-1.61-.28-2.06-.31-.44-.9-.73-1.77-.86-.04,0-.09-.01-.13-.02-.27,1.71-.54,3.42-.8,5.14Z"/>
            <path class="cls-1" d="m185.97,313.33c-.84,0-1.67,0-2.51-.01-.22-1.03-.44-2.06-.65-3.09-1.33-.03-2.66-.07-3.98-.14-.29,1.01-.58,2.02-.88,3.03-.83-.05-1.65-.1-2.48-.17,1.79-5.06,3.41-10.16,4.86-15.28.62.03,1.25.05,1.87.07,1.08,5.22,2.34,10.42,3.77,15.59Zm-3.46-4.68c-.49-2.47-.94-4.95-1.37-7.42-.02,0-.04,0-.06,0-.57,2.44-1.18,4.88-1.82,7.31,1.08.05,2.16.09,3.24.12Z"/>
            <path class="cls-1" d="m199.69,312.51c-.68.08-1.36.15-2.04.22-1.99-3.38-3.83-6.81-5.55-10.27-.02,0-.04,0-.06,0,.21,3.55.42,7.1.63,10.65-.78.05-1.55.08-2.33.12-.21-5.18-.42-10.36-.63-15.54.61-.02,1.21-.05,1.82-.09,1.64,3.47,3.43,6.9,5.34,10.29.02,0,.04,0,.06,0-.34-3.54-.69-7.09-1.03-10.63.67-.06,1.33-.13,2-.21.59,5.15,1.19,10.3,1.78,15.45Z"/>
            <path class="cls-1" d="m209.32,296.95c-.86.19-1.72.37-2.59.53.88,4.51,1.76,9.02,2.64,13.53-.86.17-1.71.32-2.57.47-.79-4.53-1.57-9.05-2.36-13.58-.86.15-1.73.29-2.59.42-.09-.58-.17-1.17-.26-1.75,2.46-.37,4.91-.82,7.35-1.35.13.58.25,1.15.38,1.73Z"/>
            <path class="cls-1" d="m233.99,303.51c-.92.38-1.84.76-2.76,1.12-.35-.21-.71-.42-1.06-.63-1,1.24-2.05,2.05-3.11,2.42-1.17.41-2.27.4-3.29-.02-1.02-.42-1.67-1.14-1.99-2.14-.37-1.18.17-2.77,1.5-4.8-1.49-1.01-2.38-2.06-2.72-3.12-.26-.8-.16-1.59.29-2.36.45-.77,1.12-1.31,2.04-1.63,1-.36,1.87-.41,2.6-.14.73.27,1.27.85,1.62,1.73.41,1.05.09,2.61-1.08,4.66,1.17.8,2.36,1.59,3.58,2.36.32-.8.54-1.52.68-2.15.59.06,1.18.12,1.78.18-.26,1.21-.54,2.18-.83,2.91.91.54,1.83,1.07,2.75,1.6Zm-5.43-.5c-1.26-.77-2.49-1.56-3.71-2.36-.67,1.11-.91,2-.67,2.7.17.5.51.88,1.03,1.12.52.24,1.04.27,1.56.08.66-.23,1.26-.75,1.79-1.54Zm-4.14-5.46c.65-1.41.84-2.43.61-3.05-.11-.3-.32-.5-.61-.62-.3-.12-.62-.12-.95,0-.35.13-.62.37-.81.72-.18.35-.22.7-.1,1.04.22.63.83,1.28,1.87,1.92Z"/>
            <path class="cls-1" d="m237.51,284.67c.8-.43,1.6-.88,2.4-1.33,1.3-.74,2.41-1.03,3.37-.85.95.18,1.81.86,2.54,2.04,1.04,1.67.95,3.21-.34,4.59,1.86-.72,3.38-.16,4.58,1.75.66,1.05.85,2.06.55,3.03-.29.97-1.05,1.82-2.27,2.53-1.15.67-2.31,1.32-3.48,1.94-2.45-4.57-4.91-9.14-7.36-13.7Zm2.82.27c.89,1.57,1.77,3.14,2.66,4.71.81-.49,1.31-1.02,1.48-1.57.17-.55,0-1.25-.49-2.08-.54-.9-1.06-1.43-1.57-1.58-.51-.15-1.2.03-2.08.53Zm3.42,6.06c.89,1.57,1.78,3.15,2.67,4.72.9-.53,1.46-1.07,1.67-1.59.21-.53.05-1.22-.47-2.09-.55-.92-1.12-1.45-1.7-1.58-.58-.13-1.3.05-2.17.53Z"/>
            <path class="cls-1" d="m263.9,285.77c-.69.55-1.38,1.1-2.08,1.63-.82-.66-1.63-1.33-2.45-2-1.11.84-2.23,1.66-3.37,2.46.39.98.78,1.96,1.16,2.94-.71.49-1.42.98-2.13,1.45-1.67-5.12-3.5-10.16-5.49-15.12.53-.38,1.06-.77,1.58-1.16,4.12,3.39,8.38,6.66,12.77,9.78Zm-5.76-1.42c-1.93-1.62-3.84-3.27-5.73-4.94-.02.01-.03.02-.05.03,1.04,2.29,2.05,4.59,3.04,6.91.92-.65,1.83-1.32,2.74-2Z"/>
            <path class="cls-1" d="m274.32,276.45c-.69.69-1.38,1.37-2.08,2.03-2.46-1.01-4.89-2.08-7.27-3.2-.06.05-.11.1-.17.15,1.63,1.81,3.26,3.61,4.89,5.42-.69.62-1.38,1.24-2.08,1.84-3.39-3.92-6.78-7.85-10.17-11.77.85-.73,1.68-1.48,2.51-2.24,2.02-1.86,3.92-1.92,5.8-.04.85.86,1.33,1.65,1.45,2.39.12.74-.07,1.57-.58,2.47,2.52,1.04,5.08,2.02,7.69,2.94Zm-10.48-2.07c.73-.69,1.13-1.32,1.21-1.9.07-.58-.23-1.22-.9-1.93-.64-.68-1.25-1.03-1.81-1.05-.56-.02-1.18.29-1.88.92-.04.03-.07.06-.11.1,1.16,1.29,2.32,2.57,3.49,3.86Z"/>
          </g>
          <polygon class="cls-13" points="90.79 250.51 93.67 255.78 98.94 258.66 93.67 261.54 90.79 266.81 87.91 261.54 82.64 258.66 87.91 255.78 90.79 250.51"/>
          <polygon class="cls-13" points="280.13 250.51 283.01 255.78 288.28 258.66 283.01 261.54 280.13 266.81 277.25 261.54 271.98 258.66 277.25 255.78 280.13 250.51"/>
          <g>
            <path class="cls-3" d="m271.07,106.39c0,36.92-48.71,50.61-67.96,19.07-11.38,5.35-24.58,6.04-36.13,2.7-17.52,34.06-69.27,21.62-69.27-16.74,0-23.36,21.56-40.75,44.36-35.84.28.06.57.12.85.19.74-1.1,1.53-2.16,2.37-3.17,15.28-18.4,46.54-20.85,65.73-6.28,2.7,2.04,5.15,4.42,7.29,7.13.4-.2.81-.39,1.21-.57,23.86-10.65,51.55,6.69,51.55,33.51Z"/>
            <path class="cls-3" d="m226.08,164.52c-26.46-16.52-56.97-16.52-83.43,0-1.64,1.03-3.44-.8-3.44-3.52,0-25.18-.5-25.84,1.49-27.16,42.51-28.06,88.82-4.41,88.82,3.5,0,20.12,1.11,30.02-3.44,27.17Z"/>
            <g>
              <path class="cls-1" d="m246.94,111.42c0,15.81-19.73,28.63-44.06,28.63s-44.06-12.82-44.06-28.63"/>
              <path class="cls-11" d="m246.94,111.42c.86,10.24-7.05,18.87-15.48,23.55-20.21,11.44-53.51,9.55-68.41-9.7-2.9-3.97-4.69-8.94-4.23-13.86.84,9.67,8.65,16.79,16.94,20.8,16.78,7.85,37.47,7.86,54.24,0,8.28-4.01,16.1-11.13,16.93-20.81h0Z"/>
            </g>
            <path class="cls-11" d="m143.34,97.7c-3-6.16-3.3-14-1.27-22.12.28.06.57.12.85.19.74-1.1,1.53-2.16,2.37-3.17-3.41,8.04-4.45,16.65-1.95,25.1Z"/>
            <path class="cls-11" d="m249.09,86.34c-18.53,2.4-31.02-6.67-38.07-20.02,2.7,2.04,5.15,4.42,7.29,7.13.4-.2.81-.39,1.21-.57,6.73,8.04,16.45,13.34,29.57,13.46Z"/>
            <path class="cls-11" d="m139.86,134.62c-.34.52-.53,1.33-.63,2.98-11.11-5.77-14.66-13.31-15.34-26.18,2.51,11.67,5.39,18.28,15.97,23.2Z"/>
          </g>
          <g>
            <path class="cls-1" d="m146.36,234.58v-2.88c.89.52,1.64.78,2.25.78.35,0,.63-.1.83-.29.21-.2.31-.45.31-.77,0-.25-.08-.48-.25-.7-.16-.22-.45-.48-.85-.79-.97-.74-1.67-1.43-2.11-2.07-.44-.64-.65-1.35-.65-2.14,0-1.07.34-1.94,1.01-2.62.67-.67,1.55-1.01,2.62-1.01.79,0,1.58.17,2.36.51,0,.92,0,1.85,0,2.77-.84-.46-1.51-.69-2.03-.69-.35,0-.62.08-.82.25-.2.17-.3.4-.3.7,0,.52.47,1.1,1.4,1.75.56.38,1.12.92,1.69,1.62.57.7.86,1.5.86,2.42,0,1.07-.37,1.96-1.12,2.66-.75.7-1.7,1.05-2.85,1.05-.79,0-1.56-.19-2.34-.56Z"/>
            <path class="cls-1" d="m154.38,223.71c0-.4.14-.73.42-1.01.28-.28.61-.42,1-.42.4,0,.73.14,1.01.42.28.28.42.62.42,1.01,0,.39-.14.73-.42,1.01-.28.28-.62.42-1.01.42-.38,0-.72-.14-1-.42-.28-.28-.42-.62-.42-1.01Zm.07,2.56h2.7v8.54h-2.7c0-2.85,0-5.69,0-8.54Z"/>
            <path class="cls-1" d="m161.97,226.28v1.16h.05c.63-.96,1.4-1.44,2.31-1.44.59,0,1.07.2,1.42.59.35.4.52.93.52,1.6v6.62h-2.7v-5.26c0-.29-.07-.53-.21-.71-.14-.19-.31-.28-.53-.28-.58,0-.86.36-.86,1.08v5.17h-2.69v-8.54h2.69Z"/>
            <path class="cls-1" d="m172.88,232.2v2.23c-.64.43-1.29.65-1.94.65-.96,0-1.73-.42-2.31-1.25-.58-.83-.87-1.95-.87-3.35,0-1.33.3-2.41.89-3.25.59-.83,1.36-1.25,2.3-1.25.66,0,1.3.23,1.94.7v2.21c-.37-.19-.69-.29-.98-.29-.43,0-.78.17-1.05.52-.27.35-.4.81-.4,1.4,0,.61.13,1.09.39,1.45.26.35.61.53,1.06.53.27,0,.59-.1.96-.29Z"/>
            <path class="cls-1" d="m178.47,232.2h2.27c-.43,1.92-1.52,2.88-3.25,2.88-1.08,0-1.94-.41-2.57-1.23-.63-.82-.95-1.96-.95-3.4,0-1.35.32-2.43.95-3.24.63-.81,1.47-1.22,2.51-1.22.63,0,1.24.2,1.82.59.58.39,1,.91,1.27,1.56.27.65.41,1.67.45,3.07h-4.5c.04,1.27.39,1.9,1.06,1.9.23,0,.43-.08.61-.25.18-.17.29-.38.32-.65Zm-1.96-2.47h1.96c-.02-.6-.1-1.04-.25-1.33-.15-.29-.38-.43-.71-.43-.36,0-.62.14-.77.42-.16.28-.23.73-.23,1.35Z"/>
            <path class="cls-1" d="m188.18,222.43h4.26v12.38h-2.68v-9.79h-1.58v-2.6Z"/>
            <path class="cls-1" d="m199.62,231.96c.27-.62.53-1.24.8-1.87-.43.13-.8.2-1.11.2-.91,0-1.64-.36-2.2-1.07-.56-.71-.84-1.66-.84-2.82,0-1.29.36-2.33,1.09-3.13.73-.79,1.68-1.19,2.86-1.19,1.21,0,2.17.38,2.89,1.15.72.77,1.08,1.8,1.08,3.09,0,.48-.08,1.08-.25,1.8-.16.72-.37,1.4-.62,2.05-.25.65-.96,2.19-2.12,4.64h-2.94c.45-.95.91-1.9,1.36-2.85Zm1.87-5.69c0-.54-.11-.97-.34-1.29-.23-.33-.52-.49-.9-.49-.38,0-.69.16-.95.49-.25.33-.38.74-.38,1.23,0,.58.12,1.04.36,1.39.24.34.56.51.95.51.34,0,.63-.18.88-.54.25-.36.37-.79.37-1.31Z"/>
            <path class="cls-1" d="m210.99,228.05c.71.3,1.25.76,1.64,1.38.38.62.58,1.32.58,2.1,0,1.09-.34,1.97-1.01,2.63-.67.66-1.58.98-2.71.98-1.16,0-2.07-.32-2.74-.97-.67-.65-1.01-1.53-1.01-2.63,0-.28.02-.54.06-.78.04-.24.09-.47.17-.69.08-.21.18-.41.29-.6.12-.19.25-.36.41-.52.16-.16.34-.31.56-.45.21-.14.44-.28.66-.41v-.02h-.02s0-.02-.02-.02c0-.01,0-.02-.02-.02-.37-.17-.68-.36-.92-.57-.25-.21-.45-.51-.63-.9-.17-.39-.26-.83-.26-1.34,0-.88.33-1.62.98-2.21.65-.59,1.47-.89,2.46-.89,1,0,1.82.3,2.46.9.64.6.95,1.37.96,2.31,0,.62-.15,1.14-.46,1.58-.31.43-.78.82-1.43,1.16Zm-.52,3.25c0-1.21-.33-1.82-1-1.82-.7,0-1.05.56-1.05,1.67,0,1.19.36,1.78,1.07,1.78.65,0,.98-.55.98-1.63Zm-.3-5.59c0-.9-.23-1.34-.71-1.34-.48,0-.72.4-.72,1.2,0,.48.06.83.17,1.03.11.2.3.3.57.3.46,0,.69-.39.69-1.18Z"/>
            <path class="cls-1" d="m218.25,231.96c.27-.62.53-1.24.8-1.87-.43.13-.8.2-1.11.2-.91,0-1.64-.36-2.2-1.07-.56-.71-.84-1.66-.84-2.82,0-1.29.36-2.33,1.09-3.13.73-.79,1.68-1.19,2.86-1.19,1.2,0,2.17.38,2.89,1.15.72.77,1.08,1.8,1.08,3.09,0,.48-.08,1.08-.25,1.8-.16.72-.37,1.4-.62,2.05-.25.65-.96,2.19-2.12,4.64h-2.94c.45-.95.91-1.9,1.36-2.85Zm1.87-5.69c0-.54-.11-.97-.34-1.29-.23-.33-.52-.49-.89-.49-.38,0-.69.16-.95.49-.25.33-.38.74-.38,1.23,0,.58.12,1.04.36,1.39.24.34.56.51.95.51.34,0,.64-.18.88-.54.25-.36.37-.79.37-1.31Z"/>
          </g>
          <g>
            <path class="cls-1" d="m306.95,201.58c-.97.36-1.99.68-2.87,1.12-.44.41-.59.87-.54,1.35,7.56,8.45,13.96,17.05,18.01,26.84-7.34-2.72-15.48-5.19-23.76-6.74-20.81-5.61-43.05-9.21-64.84-11.19-5.15-.47-10.32-.83-15.5-1.11-10.7-1.05-22.23-.78-32.48-.57-10.25.15-21.78.29-32.44,1.7-5.17.46-10.32,1-15.45,1.65-21.71,2.73-43.81,7.11-64.41,13.44-8.22,1.84-16.27,4.6-23.51,7.57,3.71-9.93,9.8-18.75,17.06-27.46.03-.48-.14-.93-.59-1.33-.9-.41-1.92-.69-2.91-1.02-11.85-3.29-24.19-4.28-36.93-3.41,6.6-5.68,14.73-10.33,23.72-14.08,3.72-1.55,7.51-3,11.35-4.39,24.9-7.03,50.01-12.76,76.68-15.98,11.76-1.42,23.61-2.4,35.5-2.9.67-.03,1.35-.05,2.03-.07.95-.04,1.9-.07,2.86-.1,1.25-.04,2.5-.07,3.74-.1.83-.02,1.66-.04,2.49-.05.83-.02,1.66-.02,2.49-.03,1.25-.01,2.5-.03,3.75-.04.95,0,1.9,0,2.86,0,.68,0,1.35,0,2.03,0,11.9.08,23.78.65,35.58,1.65,26.76,2.29,52.06,7.14,77.19,13.3,3.89,1.25,7.73,2.57,11.5,3.99,9.12,3.44,17.41,7.8,24.2,13.25-12.76-.42-25.06,1-36.79,4.69Z"/>
            <g class="cls-5">
              <g class="cls-4">
                <path class="cls-15" d="m306.95,201.57c11.72-3.7,24.03-5.12,36.79-4.69-1-.8-2.05-1.58-3.11-2.34-3.87.2-7.77.43-11.72.56-6.91.23-13.84.35-20.75.56-7.27.23-15.98,1.01-23.12.06-1.8-.24-3.28,1.32-1.82,2.27,11.99,7.77,22.82,15.69,29.24,26.15-9.58-2.25-19.55-3.7-29.57-4.68-2.88-.28-5.84-.56-8.84-.78,8.05,1.55,16,3.36,23.75,5.45,8.28,1.55,16.42,4.03,23.76,6.74-4.05-9.79-10.45-18.39-18.01-26.84-.04-.48.11-.94.54-1.35.88-.44,1.9-.75,2.87-1.12Z"/>
                <path class="cls-15" d="m87.41,222.88c-9.98,1.33-19.89,3.13-29.39,5.71,6.06-10.68,16.6-18.97,28.31-27.16,1.43-1-.11-2.51-1.9-2.21-7.1,1.2-15.84.72-23.11.75-6.92.03-13.84.15-20.76.16-3.95,0-7.85-.08-11.73-.15-1.04.79-2.06,1.6-3.03,2.44,12.74-.87,25.08.12,36.93,3.41.98.33,2.01.61,2.91,1.02.45.39.62.84.59,1.33-7.26,8.71-13.35,17.53-17.06,27.46,7.24-2.97,15.29-5.73,23.51-7.57,7.65-2.35,15.51-4.43,23.48-6.26-2.97.32-5.9.69-8.75,1.07Z"/>
              </g>
              <g class="cls-4">
                <path class="cls-16" d="m306.95,201.57c11.72-3.7,24.03-5.12,36.79-4.69-6.79-5.45-15.08-9.81-24.2-13.25-3.77-1.42-7.61-2.74-11.5-3.99-.67-.16-1.34-.32-2.01-.48,5.95,3.15,11.47,6.71,16.55,10.55-21.07.12-42,1.25-63.11,1.53-2.42.03-2.98,2.69-.53,3.01,16.01,2.06,29.82,11.65,39.77,21.21-14.6-3.83-31.41-4.91-46.45-5.76-15-.84-32.48-1.44-47.65,1.44,4.32.09,8.64.29,12.84.7,5.18.28,10.35.64,15.5,1.11,21.79,1.97,44.03,5.57,64.84,11.19,8.28,1.55,16.42,4.03,23.76,6.74-4.05-9.79-10.45-18.39-18.01-26.84-.04-.48.11-.94.54-1.35.88-.44,1.9-.75,2.87-1.12Z"/>
                <path class="cls-16" d="m117.67,212.05c-15,1.37-31.77,3.05-46.22,7.38,9.62-9.9,23.08-19.97,39.01-22.59,2.44-.4,1.79-3.04-.63-2.99-21.11.46-42.07.06-63.13.68,4.94-4.02,10.33-7.77,16.17-11.12-.66.19-1.33.36-1.99.55-3.84,1.39-7.63,2.84-11.35,4.39-8.99,3.75-17.13,8.4-23.72,14.08,12.74-.87,25.08.12,36.93,3.41.98.33,2.01.61,2.91,1.02.45.39.62.84.59,1.33-7.26,8.71-13.35,17.53-17.06,27.46,7.24-2.97,15.29-5.73,23.51-7.57,20.61-6.33,42.7-10.71,64.41-13.44,5.13-.64,10.28-1.19,15.45-1.65,4.16-.55,8.44-.91,12.73-1.15-15.25-2.34-32.66-1.15-47.6.22Z"/>
              </g>
              <path class="cls-2" d="m319.54,183.63c-3.77-1.42-7.61-2.74-11.5-3.99-11.68-2.86-23.41-5.42-35.29-7.59,3.21,1.09,6.38,2.24,9.51,3.44,2.34.89,4.63,1.85,6.92,2.79.48.2,8.7,3.89,7.09,4.2-7.18,1.37-14.91,1.8-22.26,2.54-12.31,1.23-24.68,2.53-37.08,3.18-6.9-.41-13.85-.68-20.72-.37-.16,0-.19.16-.03.2,7.74,1.72,15.86,2.59,23.88,3.48,11.93,2.66,23.38,7.2,32.91,12.78-18.25.28-36.51.92-54.74,1.38-10.09.26-20.18.48-30.27.79-1.02.03-2.05.05-3.07.07-1.03.02-2.05.03-3.07.04-10.09.05-20.19.17-30.28.27-18.24.17-36.51.17-54.76.53,9.33-5.91,20.62-10.84,32.45-13.92,7.99-1.17,16.08-2.33,23.75-4.31.15-.04.12-.19-.04-.2-6.87-.07-13.81.44-20.69,1.09-12.42-.21-24.82-1.08-37.17-1.88-7.36-.48-15.11-.64-22.33-1.76-1.62-.25,6.47-4.23,6.93-4.45,2.26-1.03,4.52-2.06,6.82-3.03,3.09-1.31,6.22-2.56,9.39-3.77-11.8,2.59-23.43,5.56-35.01,8.82-3.84,1.39-7.63,2.84-11.35,4.39-8.99,3.75-17.13,8.4-23.72,14.08,12.74-.87,25.08.12,36.93,3.41.98.33,2.01.61,2.91,1.02.45.39.62.84.59,1.33-7.26,8.71-13.35,17.53-17.06,27.46,7.24-2.97,15.29-5.73,23.51-7.57,20.61-6.33,42.7-10.71,64.41-13.44,5.13-.64,10.28-1.19,15.45-1.65,10.66-1.42,22.19-1.55,32.44-1.7,10.25-.2,21.78-.47,32.48.57,5.18.28,10.35.64,15.5,1.11,21.79,1.97,44.03,5.57,64.84,11.19,8.28,1.55,16.42,4.03,23.76,6.74-4.05-9.79-10.45-18.39-18.01-26.84-.04-.48.11-.94.54-1.35.88-.44,1.9-.75,2.87-1.12,11.72-3.7,24.03-5.12,36.79-4.69-6.79-5.45-15.08-9.81-24.2-13.25Z"/>
            </g>
            <path class="cls-2" d="m306.95,201.58c-.97.36-1.99.68-2.87,1.12-.44.41-.59.87-.54,1.35,7.56,8.45,13.96,17.05,18.01,26.84-7.34-2.72-15.48-5.19-23.76-6.74-20.81-5.61-43.05-9.21-64.84-11.19-5.15-.47-10.32-.83-15.5-1.11-10.7-1.05-22.23-.78-32.48-.57-10.25.15-21.78.29-32.44,1.7-5.17.46-10.32,1-15.45,1.65-21.71,2.73-43.81,7.11-64.41,13.44-8.22,1.84-16.27,4.6-23.51,7.57,3.71-9.93,9.8-18.75,17.06-27.46.03-.48-.14-.93-.59-1.33-.9-.41-1.92-.69-2.91-1.02-11.85-3.29-24.19-4.28-36.93-3.41,6.6-5.68,14.73-10.33,23.72-14.08,3.72-1.55,7.51-3,11.35-4.39,24.9-7.03,50.01-12.76,76.68-15.98,11.76-1.42,23.61-2.4,35.5-2.9.67-.03,1.35-.05,2.03-.07.95-.04,1.9-.07,2.86-.1,1.25-.04,2.5-.07,3.74-.1.83-.02,1.66-.04,2.49-.05.83-.02,1.66-.02,2.49-.03,1.25-.01,2.5-.03,3.75-.04.95,0,1.9,0,2.86,0,.68,0,1.35,0,2.03,0,11.9.08,23.78.65,35.58,1.65,26.76,2.29,52.06,7.14,77.19,13.3,3.89,1.25,7.73,2.57,11.5,3.99,9.12,3.44,17.41,7.8,24.2,13.25-12.76-.42-25.06,1-36.79,4.69Z"/>
            <path class="cls-17" d="m347.48,197.25c-3.79-3.31-8.12-6.24-12.84-8.84-7.41-4.53-16.44-8.57-25.38-10.54-24.21-7.73-51.02-12.44-77.18-14.8-5.15-.47-10.32-.83-15.5-1.11-10.7-1.05-22.23-.78-32.48-.57-10.25.15-21.78.29-32.44,1.7-5.17.46-10.32,1-15.45,1.65-26.07,3.28-52.7,8.92-76.62,17.49-8.87,2.28-17.76,6.63-25,11.42-4.62,2.77-8.85,5.84-12.52,9.28-.58.54-.31,1.58.91,1.48,10-.76,19.92-.21,29.59,1.33.33.06.67.12,1.01.17,1.7.28,3.4.6,5.08.94,1.18.33,2.27.78,3.02,1.54,0,0,0,0,0,0-8.44,8.93-13.96,19.46-17.16,29.63-.34,1.09,1.31,2.05,2.75,1.42,4.17-1.83,8.47-3.58,12.89-5.16,25.42-7.23,51.03-13.14,78.26-16.43,11.76-1.42,23.61-2.4,35.5-2.9.67-.03,1.35-.05,2.03-.07.95-.04,1.9-.07,2.86-.1,1.25-.04,2.5-.07,3.74-.1.83-.02,1.66-.04,2.49-.05.83-.02,1.66-.02,2.49-.03,1.25-.01,2.5-.03,3.75-.04.95,0,1.9,0,2.86,0,.68,0,1.35,0,2.03,0,11.9.08,23.78.65,35.58,1.65,27.33,2.34,53.13,7.35,78.79,13.69,4.47,1.42,8.82,3.02,13.06,4.7,1.45.58,3.08-.43,2.69-1.51-3.56-10.05-9.44-20.38-18.19-29.01,0,0,0,0,0,0,.73-.79,1.8-1.28,2.97-1.65,1.67-.4,3.35-.78,5.05-1.12.34-.06.67-.13,1-.2,9.6-1.88,19.5-2.77,29.52-2.36,1.23.05,1.46-.99.86-1.52Zm-40.53,4.33c-.97.36-1.99.68-2.87,1.12-.44.41-.59.87-.54,1.35,7.56,8.45,13.96,17.05,18.01,26.84-7.34-2.72-15.48-5.19-23.76-6.74-20.81-5.61-43.05-9.21-64.84-11.19-5.15-.47-10.32-.83-15.5-1.11-10.7-1.05-22.23-.78-32.48-.57-10.25.15-21.78.29-32.44,1.7-5.17.46-10.32,1-15.45,1.65-21.71,2.73-43.81,7.11-64.41,13.44-8.22,1.84-16.27,4.6-23.51,7.57,3.71-9.93,9.8-18.75,17.06-27.46.03-.48-.14-.93-.59-1.33-.9-.41-1.92-.69-2.91-1.02-11.85-3.29-24.19-4.28-36.93-3.41,6.6-5.68,14.73-10.33,23.72-14.08,3.72-1.55,7.51-3,11.35-4.39,24.9-7.03,50.01-12.76,76.68-15.98,11.76-1.42,23.61-2.4,35.5-2.9.67-.03,1.35-.05,2.03-.07.95-.04,1.9-.07,2.86-.1,1.25-.04,2.5-.07,3.74-.1.83-.02,1.66-.04,2.49-.05.83-.02,1.66-.02,2.49-.03,1.25-.01,2.5-.03,3.75-.04.95,0,1.9,0,2.86,0,.68,0,1.35,0,2.03,0,11.9.08,23.78.65,35.58,1.65,26.76,2.29,52.06,7.14,77.19,13.3,3.89,1.25,7.73,2.57,11.5,3.99,9.12,3.44,17.41,7.8,24.2,13.25-12.76-.42-25.06,1-36.79,4.69Z"/>
          </g>
          <g>
            <path class="cls-14" d="m98.34,185.92c1.89-.27,3.79-.53,5.69-.78,2.3-.31,4.19.03,5.66,1.01,1.47.97,2.32,2.44,2.55,4.39.12,1-.01,2-.4,3-.38,1-1.02,1.79-1.91,2.39,1.67,2.95,3.32,5.91,4.94,8.87-1.66.2-3.33.4-4.99.62-1.67-2.98-3.37-5.95-5.08-8.92-.03,0-.05,0-.08.01.42,3.14.84,6.28,1.26,9.42-1.57.21-3.15.43-4.72.65-.98-6.88-1.96-13.77-2.94-20.65Zm5.42,3.32c.22,1.64.44,3.27.66,4.91,2.12-.33,3.09-1.19,2.91-2.61-.12-.96-.46-1.62-1.01-1.96-.55-.35-1.4-.46-2.56-.34Z"/>
            <path class="cls-14" d="m132.13,202.99c-1.64.15-3.28.3-4.92.46-.38-1.13-.76-2.26-1.14-3.39-1.68.17-3.35.34-5.03.52-.15,1.18-.3,2.37-.45,3.55-1.61.18-3.21.36-4.82.55,1.03-7.12,2.12-14.24,3.28-21.36,1.83-.2,3.66-.39,5.49-.57,2.59,6.73,5.13,13.47,7.59,20.23Zm-7.35-6.56c-1.03-3.02-1.87-5.9-2.53-8.65-.02,0-.04,0-.06,0-.09,2.91-.32,5.9-.68,8.98,1.09-.12,2.18-.23,3.27-.34Z"/>
            <path class="cls-14" d="m130.16,182.22c3.9-.35,7.8-.67,11.7-.94.11,1.58.23,3.17.34,4.75-1.12.08-2.24.16-3.36.25.41,5.35.82,10.7,1.23,16.05-1.6.12-3.2.25-4.8.39-.45-5.35-.91-10.69-1.36-16.04-1.11.09-2.22.19-3.32.29-.14-1.58-.29-3.16-.43-4.75Z"/>
            <path class="cls-14" d="m144.91,181.07c1.65-.11,3.3-.21,4.96-.31,2.31,3.88,4.59,7.78,6.82,11.68-.09-.75-.19-1.49-.28-2.24-.16-3.26-.32-6.51-.48-9.77,1.64-.08,3.27-.15,4.91-.22.28,6.95.57,13.89.85,20.84-1.62.07-3.25.14-4.87.22-2.16-3.85-4.36-7.68-6.6-11.51.09.86.19,1.72.28,2.58.18,3.08.36,6.16.54,9.23-1.58.09-3.16.19-4.74.3-.46-6.94-.92-13.88-1.38-20.81Z"/>
            <path class="cls-14" d="m180.82,200.58c-1.65.01-3.29.04-4.94.06-.29-1.16-.57-2.31-.86-3.47-1.68.03-3.36.07-5.04.11-.25,1.17-.49,2.34-.74,3.51-1.61.05-3.23.1-4.84.16,1.6-7.02,3.26-14.02,4.98-21.03,1.84-.05,3.68-.09,5.51-.12,2.04,6.92,4.02,13.84,5.93,20.78Zm-6.79-7.14c-.78-3.09-1.39-6.03-1.82-8.82-.02,0-.04,0-.06,0-.32,2.89-.79,5.86-1.4,8.9,1.09-.03,2.19-.05,3.28-.07Z"/>
            <path class="cls-14" d="m192.83,179.73c2.07.02,4.14.05,6.21.1.79,4.52,1.39,8.4,1.81,11.65.2-1.07.4-2.15.61-3.22.24-1.25.5-2.48.78-3.67.36-1.55.72-3.11,1.08-4.66,2.11.06,4.23.13,6.34.21.56,6.98,1.09,13.96,1.6,20.94-1.57-.07-3.13-.12-4.7-.18-.26-4.79-.53-9.59-.82-14.38-1.15,4.75-2.28,9.5-3.38,14.25-1.07-.03-2.14-.05-3.21-.08-.92-4.81-1.87-9.62-2.84-14.43-.5,4.78-.98,9.57-1.46,14.35-1.5-.02-3-.04-4.5-.05.8-6.95,1.63-13.89,2.48-20.84Z"/>
            <path class="cls-14" d="m221.78,202.12c-2.52-.15-4.39-1.21-5.63-3.21-1.24-1.99-1.78-4.81-1.61-8.45.15-3.36.96-5.95,2.42-7.76,1.46-1.81,3.44-2.65,5.9-2.5,2.63.15,4.58,1.23,5.83,3.2,1.25,1.98,1.75,4.71,1.49,8.2-.25,3.49-1.12,6.15-2.57,7.99-1.46,1.84-3.4,2.68-5.84,2.53Zm.84-17.2c-1.76-.1-2.75,1.85-2.97,5.86-.14,2.58-.02,4.31.37,5.2.39.89,1,1.35,1.83,1.4.89.05,1.6-.34,2.14-1.17.53-.83.88-2.51,1.04-5.02.26-4.06-.54-6.16-2.41-6.27Z"/>
            <path class="cls-14" d="m236.14,181.7c2.07.17,4.13.34,6.2.53.48,4.56.81,8.48,1,11.75.28-1.06.55-2.11.83-3.17.33-1.23.68-2.44,1.04-3.61.46-1.53.93-3.05,1.4-4.57,2.11.2,4.21.42,6.32.65.07,7,.12,14,.14,21-1.56-.17-3.12-.34-4.68-.5.07-4.8.13-9.6.18-14.4-1.48,4.66-2.94,9.32-4.37,13.98-1.07-.1-2.14-.2-3.2-.3-.59-4.87-1.2-9.73-1.83-14.59-.83,4.74-1.64,9.48-2.45,14.22-1.5-.13-2.99-.25-4.49-.36,1.28-6.88,2.59-13.75,3.92-20.62Z"/>
            <path class="cls-14" d="m263.51,206.05c-2.51-.32-4.31-1.52-5.4-3.59-1.1-2.08-1.44-4.92-1.02-8.55.39-3.34,1.37-5.87,2.96-7.57,1.59-1.7,3.62-2.4,6.07-2.09,2.61.34,4.49,1.55,5.6,3.6,1.12,2.06,1.42,4.82.92,8.29-.49,3.47-1.54,6.06-3.12,7.79-1.59,1.73-3.58,2.43-6.01,2.12Zm2.03-17.1c-1.75-.23-2.88,1.66-3.37,5.64-.32,2.56-.32,4.3.01,5.21.33.91.9,1.42,1.73,1.53.89.11,1.63-.22,2.22-1.02.59-.79,1.05-2.44,1.39-4.94.54-4.04-.12-6.18-1.98-6.42Z"/>
          </g>
        </g>
      </g>
    </g>
  </g>
</svg>